<?xml version="1.0" standalone="no"?><svg xmlns="http://www.w3.org/2000/svg" viewBox="0 0 1440 320"><path fill="#001629" fill-opacity="1" d="M0,128L34.3,133.3C68.6,139,137,149,206,149.3C274.3,149,343,139,411,117.3C480,96,549,64,617,85.3C685.7,107,754,181,823,224C891.4,267,960,277,1029,256C1097.1,235,1166,181,1234,138.7C1302.9,96,1371,64,1406,48L1440,32L1440,320L1405.7,320C1371.4,320,1303,320,1234,320C1165.7,320,1097,320,1029,320C960,320,891,320,823,320C754.3,320,686,320,617,320C548.6,320,480,320,411,320C342.9,320,274,320,206,320C137.1,320,69,320,34,320L0,320Z" data-darkreader-inline-fill="" style="--darkreader-inline-fill:#00324e;"></path></svg>