<?xml version="1.0" standalone="no"?><svg xmlns="http://www.w3.org/2000/svg" viewBox="0 0 1440 320"><path fill="#001629" fill-opacity="1" d="M0,128L34.3,133.3C68.6,139,137,149,206,149.3C274.3,149,343,139,411,117.3C480,96,549,64,617,85.3C685.7,107,754,181,823,224C891.4,267,960,277,1029,256C1097.1,235,1166,181,1234,138.7C1302.9,96,1371,64,1406,48L1440,32L1440,0L1405.7,0C1371.4,0,1303,0,1234,0C1165.7,0,1097,0,1029,0C960,0,891,0,823,0C754.3,0,686,0,617,0C548.6,0,480,0,411,0C342.9,0,274,0,206,0C137.1,0,69,0,34,0L0,0Z" data-darkreader-inline-fill="" style="--darkreader-inline-fill:#00324e;"></path></svg>